<svg width="36" height="46" viewBox="0 0 36 46" fill="none" xmlns="http://www.w3.org/2000/svg">
<g filter="url(#filter0_d_317_18161)">
<path d="M19.4615 24.5644L19.4852 24.9906L19.8453 24.7614L22.0617 23.3509L22.309 23.5981L19.6498 26.7006L19.5844 26.7769L19.59 26.8772L19.9688 33.6959H16.2385L16.5157 28.7072L16.5209 28.6137L16.4634 28.5399L13.6453 24.9166L13.8746 24.6874L16.2671 26.3322L16.6336 26.5842L16.6583 26.1401L17.2755 15.0312H18.9319L19.4615 24.5644Z" fill="#D5D5D5" stroke="#888888" stroke-width="0.5"/>
<path d="M11.9657 9.37027L12.0663 9.31549L12.0905 9.20359C12.688 6.44023 15.1493 4.36719 18.0901 4.36719C21.0309 4.36719 23.4922 6.44023 24.0898 9.20359L24.114 9.31549L24.2145 9.37027C26.1256 10.4116 27.4224 12.438 27.4224 14.7642C27.4224 18.1519 24.6719 20.9024 21.2842 20.9024C20.1663 20.9024 19.1184 20.6031 18.2154 20.0803L18.0901 20.0077L17.9649 20.0803C17.0619 20.6031 16.014 20.9024 14.896 20.9024C11.5083 20.9024 8.75781 18.1519 8.75781 14.7642C8.75781 12.438 10.0547 10.4116 11.9657 9.37027Z" fill="#F8F8F8" stroke="#888888" stroke-width="0.5"/>
<path fill-rule="evenodd" clip-rule="evenodd" d="M14.0508 15.9183C14.0508 16.7489 14.6988 17.4221 15.4982 17.4221V17.4219C15.4982 16.5915 14.8502 15.9183 14.051 15.9183H14.0508ZM22.735 12.5349C22.735 12.9501 22.573 13.3261 22.3111 13.5982C22.0492 13.8703 21.6873 14.0386 21.2876 14.0386C21.2876 13.2081 21.9356 12.5349 22.735 12.5349ZM16.9455 11.0309C16.9455 10.2005 16.2976 9.52734 15.4983 9.52734H15.4982C15.4982 10.3579 16.1461 11.0311 16.9455 11.0311V11.0309Z" fill="#E43123"/>
</g>
<defs>
<filter id="filter0_d_317_18161" x="-5" y="0" width="46" height="46" filterUnits="userSpaceOnUse" color-interpolation-filters="sRGB">
<feFlood flood-opacity="0" result="BackgroundImageFix"/>
<feColorMatrix in="SourceAlpha" type="matrix" values="0 0 0 0 0 0 0 0 0 0 0 0 0 0 0 0 0 0 127 0" result="hardAlpha"/>
<feOffset dy="4"/>
<feGaussianBlur stdDeviation="4"/>
<feColorMatrix type="matrix" values="0 0 0 0 0.3 0 0 0 0 0.240291 0 0 0 0 0.235 0 0 0 0.4 0"/>
<feBlend mode="normal" in2="BackgroundImageFix" result="effect1_dropShadow_317_18161"/>
<feBlend mode="normal" in="SourceGraphic" in2="effect1_dropShadow_317_18161" result="shape"/>
</filter>
</defs>
</svg>
